<?xml version="1.0" encoding="UTF-8"?>
<svg width="16px" height="16px" viewBox="0 0 16 16" version="1.1" xmlns="http://www.w3.org/2000/svg" xmlns:xlink="http://www.w3.org/1999/xlink">
    <!-- Generator: Sketch 45 (43475) - http://www.bohemiancoding.com/sketch -->
    <title>Group</title>
    <desc>Created with Sketch.</desc>
    <defs>
        <rect id="path-1" x="0" y="0" width="16" height="16"></rect>
    </defs>
    <g id="Final" stroke="none" stroke-width="1" fill="none" fill-rule="evenodd">
        <g id="Checks-and-Radios" transform="translate(-146.000000, -59.000000)">
            <g id="Group" transform="translate(146.000000, 59.000000)">
                <g id="Rectangle-3-Copy-3">
                    <use fill="#FFE3E2" fill-rule="evenodd" xlink:href="#path-1"></use>
                    <rect stroke="#FF3431" stroke-width="1" x="0.5" y="0.5" width="15" height="15"></rect>
                </g>
                <g id="icons8-Checkmark-(2)-(1)" transform="translate(2.560000, 1.280000)" fill-rule="nonzero" fill="#000000">
                    <path d="M10.2972656,0.203472222 C10.2886347,0.206358413 10.2801282,0.209753761 10.2717773,0.213645833 C10.2002008,0.234823227 10.1388749,0.28989903 10.1018555,0.36625 L4.54541016,10.6822917 L0.722167969,6.55180556 C0.655034266,6.44966347 0.543598047,6.40512175 0.438687718,6.43849681 C0.333777388,6.47187187 0.25549649,6.57676818 0.239550588,6.70534032 C0.223604687,6.83391247 0.273049431,6.96152269 0.365332031,7.02996528 L4.41796875,11.4249653 C4.47773939,11.4871349 4.5571707,11.5150217 4.63551312,11.501341 C4.71385554,11.4876603 4.78332755,11.4337708 4.82578125,11.35375 L10.5606445,0.712152778 C10.6230303,0.605466862 10.6263195,0.464527191 10.5690069,0.353835717 C10.5116943,0.243144244 10.4048082,0.184000586 10.2972656,0.203472222 Z" id="Shape"></path>
                </g>
                <g id="icons8-Checkmark-(2)-(1)-Copy" transform="translate(2.560000, 1.280000)" fill-rule="nonzero" fill="#000000">
                    <path d="M10.2972656,0.203472222 C10.2886347,0.206358413 10.2801282,0.209753761 10.2717773,0.213645833 C10.2002008,0.234823227 10.1388749,0.28989903 10.1018555,0.36625 L4.54541016,10.6822917 L0.722167969,6.55180556 C0.655034266,6.44966347 0.543598047,6.40512175 0.438687718,6.43849681 C0.333777388,6.47187187 0.25549649,6.57676818 0.239550588,6.70534032 C0.223604687,6.83391247 0.273049431,6.96152269 0.365332031,7.02996528 L4.41796875,11.4249653 C4.47773939,11.4871349 4.5571707,11.5150217 4.63551312,11.501341 C4.71385554,11.4876603 4.78332755,11.4337708 4.82578125,11.35375 L10.5606445,0.712152778 C10.6230303,0.605466862 10.6263195,0.464527191 10.5690069,0.353835717 C10.5116943,0.243144244 10.4048082,0.184000586 10.2972656,0.203472222 Z" id="Shape"></path>
                </g>
            </g>
        </g>
    </g>
</svg>