<?xml version="1.0" encoding="UTF-8"?>
<svg width="278px" height="121px" viewBox="0 0 278 121" version="1.1" xmlns="http://www.w3.org/2000/svg" xmlns:xlink="http://www.w3.org/1999/xlink">
    <!-- Generator: Sketch 43.2 (39069) - http://www.bohemiancoding.com/sketch -->
    <title>logo</title>
    <desc>Created with Sketch.</desc>
    <defs></defs>
    <g id="Final" stroke="none" stroke-width="1" fill="none" fill-rule="evenodd">
        <g id="Social-Media-Share" transform="translate(-127.000000, -155.000000)" fill="#FF3431">
            <g id="logo" transform="translate(127.000000, 155.000000)">
                <path d="M0.744,45.26 L0.744,45.384 L9.052,45.384 L9.052,45.26 C8.556,44.5986664 8.14266635,43.9993336 7.812,43.462 C7.48133365,42.9246664 7.223,42.377 7.037,41.819 C6.851,41.261 6.727,40.6513336 6.665,39.99 C6.603,39.3286664 6.572,38.564 6.572,37.696 L6.572,22.568 L32.612,22.568 L32.612,37.696 C32.612,38.564 32.581,39.3286664 32.519,39.99 C32.457,40.6513336 32.333,41.261 32.147,41.819 C31.961,42.377 31.7026664,42.9246664 31.372,43.462 C31.0413336,43.9993336 30.628,44.5986664 30.132,45.26 L30.132,45.384 L38.44,45.384 L38.44,45.26 C37.944,44.5986664 37.5306664,43.9993336 37.2,43.462 C36.8693336,42.9246664 36.611,42.377 36.425,41.819 C36.239,41.261 36.115,40.6513336 36.053,39.99 C35.991,39.3286664 35.96,38.564 35.96,37.696 L35.96,7.688 C35.96,6.82 35.991,6.05533365 36.053,5.394 C36.115,4.73266635 36.239,4.123 36.425,3.565 C36.611,3.007 36.8693336,2.45933365 37.2,1.922 C37.5306664,1.38466635 37.944,0.785333649 38.44,0.124 L38.44,0 L30.132,0 L30.132,0.124 C30.628,0.785333649 31.0413336,1.38466635 31.372,1.922 C31.7026664,2.45933365 31.961,3.007 32.147,3.565 C32.333,4.123 32.457,4.73266635 32.519,5.394 C32.581,6.05533365 32.612,6.82 32.612,7.688 L32.612,21.328 L6.572,21.328 L6.572,7.688 C6.572,6.82 6.603,6.05533365 6.665,5.394 C6.727,4.73266635 6.851,4.123 7.037,3.565 C7.223,3.007 7.48133365,2.45933365 7.812,1.922 C8.14266635,1.38466635 8.556,0.785333649 9.052,0.124 L9.052,0 L0.744,0 L0.744,0.124 C1.24,0.785333649 1.65333365,1.38466635 1.984,1.922 C2.31466635,2.45933365 2.573,3.007 2.759,3.565 C2.945,4.123 3.069,4.73266635 3.131,5.394 C3.193,6.05533365 3.224,6.82 3.224,7.688 L3.224,37.696 C3.224,38.564 3.193,39.3286664 3.131,39.99 C3.069,40.6513336 2.945,41.261 2.759,41.819 C2.573,42.377 2.31466635,42.9246664 1.984,43.462 C1.65333365,43.9993336 1.24,44.5986664 0.744,45.26 Z M53.3554281,44.082 C55.0500945,44.082 56.6414281,43.7616664 58.1294281,43.121 C59.6174281,42.4803336 60.7954281,41.726 61.6634281,40.858 L61.6634281,29.884 C59.9687618,30.0906664 58.2947618,30.4213336 56.6414281,30.876 C54.9880945,31.3306664 53.5104281,31.93 52.2084281,32.674 C50.9064281,33.418 49.8420945,34.317 49.0154281,35.371 C48.1887618,36.425 47.7754281,37.6753336 47.7754281,39.122 C47.7754281,40.5686664 48.2197618,41.757 49.1084281,42.687 C49.9970945,43.617 51.4127618,44.082 53.3554281,44.082 Z M65.6314281,46.128 C64.3087618,46.128 63.3270945,45.725 62.6864281,44.919 C62.0457618,44.113 61.7047618,43.1106664 61.6634281,41.912 C60.5887618,43.0693336 59.1937618,44.0923336 57.4784281,44.981 C55.7630945,45.8696664 53.8927618,46.314 51.8674281,46.314 C49.6767618,46.314 47.9200945,45.756 46.5974281,44.64 C45.2747618,43.524 44.6134281,41.974 44.6134281,39.99 C44.6134281,38.1713336 45.1714281,36.6006664 46.2874281,35.278 C47.4034281,33.9553336 48.8087618,32.8496664 50.5034281,31.961 C52.1980945,31.0723336 54.0374281,30.38 56.0214281,29.884 C58.0054281,29.388 59.8860945,29.0573336 61.6634281,28.892 L61.6634281,23.188 C61.6634281,22.3613336 61.5497618,21.5656664 61.3224281,20.801 C61.0950945,20.0363336 60.7230945,19.3646664 60.2064281,18.786 C59.6897618,18.2073336 58.9767618,17.7423336 58.0674281,17.391 C57.1580945,17.0396664 56.0214281,16.864 54.6574281,16.864 C52.9627618,16.864 51.3610945,17.1326664 49.8524281,17.67 C48.3437618,18.2073336 47.0520945,18.848 45.9774281,19.592 L45.6674281,19.158 C46.9074281,17.918 48.4470945,16.9156664 50.2864281,16.151 C52.1257618,15.3863336 54.1820945,15.004 56.4554281,15.004 C58.1914281,15.004 59.5967618,15.2106664 60.6714281,15.624 C61.7460945,16.0373336 62.5830945,16.5953336 63.1824281,17.298 C63.7817618,18.0006664 64.1950945,18.8066664 64.4224281,19.716 C64.6497618,20.6253336 64.7634281,21.576 64.7634281,22.568 L64.7634281,41.292 C64.7634281,42.1186664 64.9597618,42.7696664 65.3524281,43.245 C65.7450945,43.7203336 66.3547618,43.958 67.1814281,43.958 C67.8840945,43.958 68.4730945,43.7926664 68.9484281,43.462 C69.4237618,43.1313336 69.8267618,42.8006664 70.1574281,42.47 L70.3434281,42.594 C70.2194281,42.9246664 70.0437618,43.2966664 69.8164281,43.71 C69.5890945,44.1233336 69.2894281,44.5056664 68.9174281,44.857 C68.5454281,45.2083336 68.0907618,45.508 67.5534281,45.756 C67.0160945,46.004 66.3754281,46.128 65.6314281,46.128 Z M87.0568562,45.198 C88.7515226,45.198 90.3015226,44.857 91.7068562,44.175 C93.1121899,43.493 94.3211899,42.5113336 95.3338562,41.23 C96.3465226,39.9486664 97.1318562,38.3986664 97.6898562,36.58 C98.2478562,34.7613336 98.5268562,32.736 98.5268562,30.504 C98.5268562,28.3546664 98.2375226,26.443 97.6588562,24.769 C97.0801899,23.095 96.3051899,21.6896664 95.3338562,20.553 C94.3625226,19.4163336 93.2155226,18.5586664 91.8928562,17.98 C90.5701899,17.4013336 89.1648562,17.112 87.6768562,17.112 C85.6515226,17.112 83.8328562,17.577 82.2208562,18.507 C80.6088562,19.437 79.4308562,20.46 78.6868562,21.576 L78.6868562,41.106 C79.6788562,42.4286664 80.8878562,43.4413336 82.3138562,44.144 C83.7398562,44.8466664 85.3208562,45.198 87.0568562,45.198 Z M74.2228562,59.334 L74.2228562,59.21 C74.8015226,58.1353336 75.1735226,57.071 75.3388562,56.017 C75.5041899,54.963 75.5868562,53.6093336 75.5868562,51.956 L75.5868562,22.692 C75.5868562,21.4933336 75.3078562,20.5323336 74.7498562,19.809 C74.1918562,19.0856664 73.5615226,18.4966664 72.8588562,18.042 L72.8588562,17.918 L78.4388562,14.694 L78.4388562,20.212 L78.8728562,20.274 C79.9888562,18.4553336 81.4561899,17.1223336 83.2748562,16.275 C85.0935226,15.4276664 87.0155226,15.004 89.0408562,15.004 C90.9421899,15.004 92.6885226,15.3553336 94.2798562,16.058 C95.8711899,16.7606664 97.2455226,17.7526664 98.4028562,19.034 C99.5601899,20.3153336 100.469523,21.8756664 101.130856,23.715 C101.79219,25.5543336 102.122856,27.59 102.122856,29.822 C102.122856,31.93 101.812856,33.9656664 101.192856,35.929 C100.572856,37.8923336 99.6325226,39.649 98.3718562,41.199 C97.1111899,42.749 95.5095226,43.989 93.5668562,44.919 C91.6241899,45.849 89.3508562,46.314 86.7468562,46.314 C84.6388562,46.314 82.9751899,46.066 81.7558562,45.57 C80.5365226,45.074 79.5135226,44.516 78.6868562,43.896 L78.6868562,51.894 C78.6868562,53.5473336 78.7488562,54.9113336 78.8728562,55.986 C78.9968562,57.0606664 79.3895226,58.1353336 80.0508562,59.21 L80.0508562,59.334 L74.2228562,59.334 Z M121.936284,45.198 C123.630951,45.198 125.180951,44.857 126.586284,44.175 C127.991618,43.493 129.200618,42.5113336 130.213284,41.23 C131.225951,39.9486664 132.011284,38.3986664 132.569284,36.58 C133.127284,34.7613336 133.406284,32.736 133.406284,30.504 C133.406284,28.3546664 133.116951,26.443 132.538284,24.769 C131.959618,23.095 131.184618,21.6896664 130.213284,20.553 C129.241951,19.4163336 128.094951,18.5586664 126.772284,17.98 C125.449618,17.4013336 124.044284,17.112 122.556284,17.112 C120.530951,17.112 118.712284,17.577 117.100284,18.507 C115.488284,19.437 114.310284,20.46 113.566284,21.576 L113.566284,41.106 C114.558284,42.4286664 115.767284,43.4413336 117.193284,44.144 C118.619284,44.8466664 120.200284,45.198 121.936284,45.198 Z M109.102284,59.334 L109.102284,59.21 C109.680951,58.1353336 110.052951,57.071 110.218284,56.017 C110.383618,54.963 110.466284,53.6093336 110.466284,51.956 L110.466284,22.692 C110.466284,21.4933336 110.187284,20.5323336 109.629284,19.809 C109.071284,19.0856664 108.440951,18.4966664 107.738284,18.042 L107.738284,17.918 L113.318284,14.694 L113.318284,20.212 L113.752284,20.274 C114.868284,18.4553336 116.335618,17.1223336 118.154284,16.275 C119.972951,15.4276664 121.894951,15.004 123.920284,15.004 C125.821618,15.004 127.567951,15.3553336 129.159284,16.058 C130.750618,16.7606664 132.124951,17.7526664 133.282284,19.034 C134.439618,20.3153336 135.348951,21.8756664 136.010284,23.715 C136.671618,25.5543336 137.002284,27.59 137.002284,29.822 C137.002284,31.93 136.692284,33.9656664 136.072284,35.929 C135.452284,37.8923336 134.511951,39.649 133.251284,41.199 C131.990618,42.749 130.388951,43.989 128.446284,44.919 C126.503618,45.849 124.230284,46.314 121.626284,46.314 C119.518284,46.314 117.854618,46.066 116.635284,45.57 C115.415951,45.074 114.392951,44.516 113.566284,43.896 L113.566284,51.894 C113.566284,53.5473336 113.628284,54.9113336 113.752284,55.986 C113.876284,57.0606664 114.268951,58.1353336 114.930284,59.21 L114.930284,59.334 L109.102284,59.334 Z M140.943712,55.924 L141.067712,59.334 C143.217046,59.086 145.087379,58.3006664 146.678712,56.978 C148.270046,55.6553336 149.665046,53.4646664 150.863712,50.406 L161.589712,22.506 C161.961712,21.5553336 162.282046,20.7493336 162.550712,20.088 C162.819379,19.4266664 163.098379,18.8583336 163.387712,18.383 C163.677046,17.9076664 163.987046,17.4943336 164.317712,17.143 C164.648379,16.7916664 165.061712,16.43 165.557712,16.058 L165.557712,15.934 L159.419712,15.934 L159.419712,16.058 C160.370379,16.6366664 160.907712,17.4736664 161.031712,18.569 C161.155712,19.6643336 160.866379,21.142 160.163712,23.002 L153.467712,40.61 L146.647712,22.506 C145.986379,20.7286664 145.707379,19.3543336 145.810712,18.383 C145.914046,17.4116664 146.296379,16.6366664 146.957712,16.058 L146.957712,15.934 L139.703712,15.934 L139.703712,16.058 C140.075712,16.3473336 140.416712,16.678 140.726712,17.05 C141.036712,17.422 141.326046,17.856 141.594712,18.352 C141.863379,18.848 142.142379,19.4266664 142.431712,20.088 C142.721046,20.7493336 143.031046,21.514 143.361712,22.382 L151.917712,44.64 L150.367712,48.67 C149.830379,50.1166664 149.138046,51.2946664 148.290712,52.204 C147.443379,53.1133336 146.565046,53.847 145.655712,54.405 C144.746379,54.963 143.868046,55.3556664 143.020712,55.583 C142.173379,55.8103336 141.481046,55.924 140.943712,55.924 Z M176.195141,45.384 L176.195141,45.26 C175.533807,44.1853336 175.141141,43.1106664 175.017141,42.036 C174.893141,40.9613336 174.831141,39.5973336 174.831141,37.944 L174.831141,21.514 C176.153807,20.0673336 177.703807,19.0236664 179.481141,18.383 C181.258474,17.7423336 182.973807,17.422 184.627141,17.422 C185.908474,17.422 186.993474,17.608 187.882141,17.98 C188.770807,18.352 189.494141,18.8686664 190.052141,19.53 C190.610141,20.1913336 191.002807,20.9663336 191.230141,21.855 C191.457474,22.7436664 191.571141,23.7046664 191.571141,24.738 L191.571141,38.006 C191.571141,39.5766664 191.488474,40.9096664 191.323141,42.005 C191.157807,43.1003336 190.785807,44.1853336 190.207141,45.26 L190.207141,45.384 L196.035141,45.384 L196.035141,45.26 C195.373807,44.2266664 194.981141,43.1726664 194.857141,42.098 C194.733141,41.0233336 194.671141,39.6386664 194.671141,37.944 L194.671141,24.056 C194.671141,21.2453336 193.947807,19.034 192.501141,17.422 C191.054474,15.81 188.884474,15.004 185.991141,15.004 C184.007141,15.004 182.043807,15.438 180.101141,16.306 C178.158474,17.174 176.401807,18.538 174.831141,20.398 L174.583141,20.336 L174.583141,14.694 L169.003141,17.918 L169.003141,18.042 C169.705807,18.4966664 170.336141,19.0856664 170.894141,19.809 C171.452141,20.5323336 171.731141,21.4933336 171.731141,22.692 L171.731141,38.006 C171.731141,39.6593336 171.648474,41.013 171.483141,42.067 C171.317807,43.121 170.945807,44.1853336 170.367141,45.26 L170.367141,45.384 L176.195141,45.384 Z M216.344569,16.12 C213.740569,16.12 211.570569,16.9776664 209.834569,18.693 C208.098569,20.4083336 206.961902,22.8366664 206.424569,25.978 L223.598569,25.606 L223.598569,25.234 C223.598569,22.0926664 222.978569,19.7883336 221.738569,18.321 C220.498569,16.8536664 218.700569,16.12 216.344569,16.12 Z M227.690569,38.502 C226.905235,40.858 225.489569,42.749 223.443569,44.175 C221.397569,45.601 218.927902,46.314 216.034569,46.314 C214.050569,46.314 212.231902,45.9523336 210.578569,45.229 C208.925235,44.5056664 207.519902,43.4723336 206.362569,42.129 C205.205235,40.7856664 204.306235,39.184 203.665569,37.324 C203.024902,35.464 202.704569,33.3973336 202.704569,31.124 C202.704569,28.6853336 203.076569,26.474 203.820569,24.49 C204.564569,22.506 205.566902,20.8113336 206.827569,19.406 C208.088235,18.0006664 209.555569,16.9156664 211.229569,16.151 C212.903569,15.3863336 214.670569,15.004 216.530569,15.004 C218.307902,15.004 219.899235,15.3346664 221.304569,15.996 C222.709902,16.6573336 223.887902,17.546 224.838569,18.662 C225.789235,19.778 226.502235,21.049 226.977569,22.475 C227.452902,23.901 227.628569,25.3786664 227.504569,26.908 L206.300569,26.908 C206.176569,27.776 206.114569,28.7266664 206.114569,29.76 C206.114569,31.744 206.341902,33.573 206.796569,35.247 C207.251235,36.921 207.943569,38.3676664 208.873569,39.587 C209.803569,40.8063336 210.950569,41.757 212.314569,42.439 C213.678569,43.121 215.290569,43.462 217.150569,43.462 C219.093235,43.462 221.015235,43.059 222.916569,42.253 C224.817902,41.447 226.305902,40.1553336 227.380569,38.378 L227.690569,38.502 Z M251.347997,21.638 L250.727997,16.12 C249.90133,15.7893336 248.898997,15.5206664 247.720997,15.314 C246.542997,15.1073336 245.31333,15.004 244.031997,15.004 C242.791997,15.004 241.551997,15.1383336 240.311997,15.407 C239.071997,15.6756664 237.976663,16.1096664 237.025997,16.709 C236.07533,17.3083336 235.30033,18.104 234.700997,19.096 C234.101663,20.088 233.801997,21.3073336 233.801997,22.754 C233.801997,24.118 234.070663,25.265 234.607997,26.195 C235.14533,27.125 235.837663,27.931 236.684997,28.613 C237.53233,29.295 238.482997,29.8736664 239.536997,30.349 C240.590997,30.8243336 241.634663,31.248 242.667997,31.62 C243.70133,31.992 244.682997,32.3846664 245.612997,32.798 C246.542997,33.2113336 247.369663,33.697 248.092997,34.255 C248.81633,34.813 249.394997,35.464 249.828997,36.208 C250.262997,36.952 250.479997,37.8406664 250.479997,38.874 C250.479997,40.61 249.849663,42.098 248.588997,43.338 C247.32833,44.578 245.457997,45.198 242.977997,45.198 C240.78733,45.198 238.968663,44.6296664 237.521997,43.493 C236.07533,42.3563336 234.83533,40.548 233.801997,38.068 L233.305997,38.192 L233.925997,44.516 C234.752663,44.9293336 235.82733,45.3323336 237.149997,45.725 C238.472663,46.1176664 240.125997,46.314 242.109997,46.314 C245.705997,46.314 248.423663,45.5493336 250.262997,44.02 C252.10233,42.4906664 253.021997,40.424 253.021997,37.82 C253.021997,36.3733336 252.763663,35.154 252.246997,34.162 C251.73033,33.17 251.058663,32.3123336 250.231997,31.589 C249.40533,30.8656664 248.464997,30.256 247.410997,29.76 C246.356997,29.264 245.292663,28.8093336 244.217997,28.396 C243.14333,27.9826664 242.12033,27.5796664 241.148997,27.187 C240.177663,26.7943336 239.340663,26.3396664 238.637997,25.823 C237.93533,25.3063336 237.37733,24.7173336 236.963997,24.056 C236.550663,23.3946664 236.343997,22.568 236.343997,21.576 C236.343997,19.9226664 236.963997,18.6 238.203997,17.608 C239.443997,16.616 241.03533,16.12 242.977997,16.12 C244.50733,16.12 245.912663,16.5023336 247.193997,17.267 C248.47533,18.0316664 249.694663,19.53 250.851997,21.762 L251.347997,21.638 Z M275.439425,21.638 L274.819425,16.12 C273.992758,15.7893336 272.990425,15.5206664 271.812425,15.314 C270.634425,15.1073336 269.404758,15.004 268.123425,15.004 C266.883425,15.004 265.643425,15.1383336 264.403425,15.407 C263.163425,15.6756664 262.068091,16.1096664 261.117425,16.709 C260.166758,17.3083336 259.391758,18.104 258.792425,19.096 C258.193091,20.088 257.893425,21.3073336 257.893425,22.754 C257.893425,24.118 258.162091,25.265 258.699425,26.195 C259.236758,27.125 259.929091,27.931 260.776425,28.613 C261.623758,29.295 262.574425,29.8736664 263.628425,30.349 C264.682425,30.8243336 265.726091,31.248 266.759425,31.62 C267.792758,31.992 268.774425,32.3846664 269.704425,32.798 C270.634425,33.2113336 271.461091,33.697 272.184425,34.255 C272.907758,34.813 273.486425,35.464 273.920425,36.208 C274.354425,36.952 274.571425,37.8406664 274.571425,38.874 C274.571425,40.61 273.941091,42.098 272.680425,43.338 C271.419758,44.578 269.549425,45.198 267.069425,45.198 C264.878758,45.198 263.060091,44.6296664 261.613425,43.493 C260.166758,42.3563336 258.926758,40.548 257.893425,38.068 L257.397425,38.192 L258.017425,44.516 C258.844091,44.9293336 259.918758,45.3323336 261.241425,45.725 C262.564091,46.1176664 264.217425,46.314 266.201425,46.314 C269.797425,46.314 272.515091,45.5493336 274.354425,44.02 C276.193758,42.4906664 277.113425,40.424 277.113425,37.82 C277.113425,36.3733336 276.855091,35.154 276.338425,34.162 C275.821758,33.17 275.150091,32.3123336 274.323425,31.589 C273.496758,30.8656664 272.556425,30.256 271.502425,29.76 C270.448425,29.264 269.384091,28.8093336 268.309425,28.396 C267.234758,27.9826664 266.211758,27.5796664 265.240425,27.187 C264.269091,26.7943336 263.432091,26.3396664 262.729425,25.823 C262.026758,25.3063336 261.468758,24.7173336 261.055425,24.056 C260.642091,23.3946664 260.435425,22.568 260.435425,21.576 C260.435425,19.9226664 261.055425,18.6 262.295425,17.608 C263.535425,16.616 265.126758,16.12 267.069425,16.12 C268.598758,16.12 270.004091,16.5023336 271.285425,17.267 C272.566758,18.0316664 273.786091,19.53 274.943425,21.762 L275.439425,21.638 Z M34.658,120.314 C32.674,120.314 30.9276664,119.828334 29.419,118.857 C27.9103336,117.885666 26.4946664,116.614666 25.172,115.044 C23.5186664,116.78 21.731,118.092334 19.809,118.981 C17.887,119.869666 15.6653336,120.314 13.144,120.314 C10.9533336,120.314 9.03133365,119.983334 7.378,119.322 C5.72466635,118.660666 4.35033365,117.772 3.255,116.656 C2.15966635,115.54 1.34333365,114.238 0.806,112.75 C0.268666351,111.262 0,109.670666 0,107.976 C0,104.669334 0.950666351,101.869 2.852,99.575 C4.75333365,97.281 7.254,95.514 10.354,94.274 C8.90733365,92.166 7.812,90.2543336 7.068,88.539 C6.324,86.8236664 5.952,85.036 5.952,83.176 C5.952,81.688 6.18966635,80.324 6.665,79.084 C7.14033365,77.844 7.80166635,76.7796664 8.649,75.891 C9.49633365,75.0023336 10.4986664,74.31 11.656,73.814 C12.8133336,73.318 14.074,73.07 15.438,73.07 C16.7606664,73.07 17.949,73.2973336 19.003,73.752 C20.057,74.2066664 20.9456664,74.8163336 21.669,75.581 C22.3923336,76.3456664 22.9503336,77.2653336 23.343,78.34 C23.7356664,79.4146664 23.932,80.572 23.932,81.812 C23.932,84.4573336 23.0536664,86.8236664 21.297,88.911 C19.5403336,90.9983336 17.0293336,92.6206664 13.764,93.778 C14.384,94.6046664 15.0453336,95.4726664 15.748,96.382 C16.4506664,97.2913336 17.2153336,98.2833336 18.042,99.358 C19.8193336,101.672666 21.4003336,103.884 22.785,105.992 C24.1696664,108.1 25.5233336,110.001334 26.846,111.696 C27.8793336,110.249334 28.7783336,108.72 29.543,107.108 C30.3076664,105.496 30.938,103.946 31.434,102.458 C31.93,100.97 32.2916664,99.5956664 32.519,98.335 C32.7463336,97.0743336 32.86,96.072 32.86,95.328 C32.86,94.3773336 32.6223336,93.6333336 32.147,93.096 C31.6716664,92.5586664 30.6486664,92.1866664 29.078,91.98 L29.078,91.732 L40.362,91.732 L40.362,91.98 C39.246,92.228 38.3986664,92.538 37.82,92.91 C37.2413336,93.282 36.7453336,93.6953336 36.332,94.15 C35.8773336,94.7286664 35.4536664,95.4106664 35.061,96.196 C34.6683336,96.9813336 34.286,97.8493336 33.914,98.8 C33.2113336,100.742666 32.395,102.892 31.465,105.248 C30.535,107.604 29.1813336,109.980666 27.404,112.378 C28.7266664,113.948666 30.0493336,115.209334 31.372,116.16 C32.6946664,117.110666 34.224,117.586 35.96,117.586 C37.572,117.586 39.0186664,117.141666 40.3,116.253 C41.5813336,115.364334 42.5733336,114.010666 43.276,112.192 L43.524,112.316 C42.904,114.630666 41.8913336,116.542334 40.486,118.051 C39.0806664,119.559666 37.138,120.314 34.658,120.314 Z M8.432,81.812 C8.432,83.672 8.835,85.4596664 9.641,87.175 C10.447,88.8903336 11.6973336,90.9053336 13.392,93.22 C15.996,92.1866664 18.042,90.7296664 19.53,88.849 C21.018,86.9683336 21.762,84.726 21.762,82.122 C21.762,81.0886664 21.638,80.0966664 21.39,79.146 C21.142,78.1953336 20.7493336,77.348 20.212,76.604 C19.6746664,75.86 18.9926664,75.271 18.166,74.837 C17.3393336,74.403 16.368,74.186 15.252,74.186 C13.3506664,74.186 11.7386664,74.837 10.416,76.139 C9.09333365,77.441 8.432,79.332 8.432,81.812 Z M14.384,118.702 C16.5746664,118.702 18.4863336,118.309334 20.119,117.524 C21.7516664,116.738666 23.2293336,115.684666 24.552,114.362 C23.808,113.411334 23.064,112.388334 22.32,111.293 C21.576,110.197666 20.832,109.071334 20.088,107.914 C19.344,106.756666 18.5896664,105.589 17.825,104.411 C17.0603336,103.233 16.244,102.086 15.376,100.97 C14.508,99.8126664 13.6916664,98.7483336 12.927,97.777 C12.1623336,96.8056664 11.47,95.8653336 10.85,94.956 C9.77533365,95.452 8.773,96.0616664 7.843,96.785 C6.913,97.5083336 6.09666635,98.3556664 5.394,99.327 C4.69133365,100.298334 4.13333365,101.414334 3.72,102.675 C3.30666635,103.935666 3.1,105.372 3.1,106.984 C3.1,108.637334 3.33766635,110.177 3.813,111.603 C4.28833365,113.029 4.991,114.269 5.921,115.323 C6.851,116.377 8.029,117.203666 9.455,117.803 C10.881,118.402334 12.524,118.702 14.384,118.702 Z M97.1008562,115.478 L98.3408562,105.992 L97.8448562,105.868 C97.0181899,107.976 96.0985226,109.846334 95.0858562,111.479 C94.0731899,113.111666 92.8745226,114.486 91.4898562,115.602 C90.1051899,116.718 88.5241899,117.575666 86.7468562,118.175 C84.9695226,118.774334 82.9235226,119.074 80.6088562,119.074 C77.4261899,119.074 74.6775226,118.505666 72.3628562,117.369 C70.0481899,116.232334 68.1158562,114.661666 66.5658562,112.657 C65.0158562,110.652334 63.8688562,108.275666 63.1248562,105.527 C62.3808562,102.778334 62.0088562,99.8126664 62.0088562,96.63 C62.0088562,93.4473336 62.4118562,90.492 63.2178562,87.764 C64.0238562,85.036 65.2328562,82.68 66.8448562,80.696 C68.4568562,78.712 70.5028562,77.1516664 72.9828562,76.015 C75.4628562,74.8783336 78.3768562,74.31 81.7248562,74.31 C85.1968562,74.31 88.1935226,75.147 90.7148562,76.821 C93.2361899,78.495 95.5301899,81.2333336 97.5968562,85.036 L98.0928562,84.912 L96.8528562,76.17 C96.1088562,75.8393336 95.1891899,75.488 94.0938562,75.116 C92.9985226,74.744 91.7998562,74.403 90.4978562,74.093 C89.1958562,73.783 87.8215226,73.535 86.3748562,73.349 C84.9281899,73.163 83.4608562,73.07 81.9728562,73.07 C78.2528562,73.07 74.9048562,73.6796664 71.9288562,74.899 C68.9528562,76.1183336 66.4315226,77.782 64.3648562,79.89 C62.2981899,81.998 60.7068562,84.4883336 59.5908562,87.361 C58.4748562,90.2336664 57.9168562,93.3233336 57.9168562,96.63 C57.9168562,99.9366664 58.4231899,103.026334 59.4358562,105.899 C60.4485226,108.771666 61.9158562,111.282666 63.8378562,113.432 C65.7598562,115.581334 68.1055226,117.265666 70.8748562,118.485 C73.6441899,119.704334 76.8061899,120.314 80.3608562,120.314 C82.2621899,120.314 84.1015226,120.148666 85.8788562,119.818 C87.6561899,119.487334 89.2785226,119.074 90.7458562,118.578 C92.2131899,118.082 93.4945226,117.555 94.5898562,116.997 C95.6851899,116.439 96.5221899,115.932666 97.1008562,115.478 Z M120.014284,120.314 C117.947618,120.314 115.984284,119.911 114.124284,119.105 C112.264284,118.299 110.641951,117.193334 109.257284,115.788 C107.872618,114.382666 106.777284,112.729334 105.971284,110.828 C105.165284,108.926666 104.762284,106.880666 104.762284,104.69 C104.762284,102.499334 105.165284,100.453334 105.971284,98.552 C106.777284,96.6506664 107.872618,94.987 109.257284,93.561 C110.641951,92.135 112.264284,91.019 114.124284,90.213 C115.984284,89.407 117.947618,89.004 120.014284,89.004 C122.080951,89.004 124.044284,89.407 125.904284,90.213 C127.764284,91.019 129.386618,92.135 130.771284,93.561 C132.155951,94.987 133.251284,96.6506664 134.057284,98.552 C134.863284,100.453334 135.266284,102.499334 135.266284,104.69 C135.266284,106.880666 134.863284,108.926666 134.057284,110.828 C133.251284,112.729334 132.155951,114.382666 130.771284,115.788 C129.386618,117.193334 127.764284,118.299 125.904284,119.105 C124.044284,119.911 122.080951,120.314 120.014284,120.314 Z M120.014284,119.198 C121.915618,119.198 123.579284,118.815666 125.005284,118.051 C126.431284,117.286334 127.619618,116.253 128.570284,114.951 C129.520951,113.649 130.233951,112.119666 130.709284,110.363 C131.184618,108.606334 131.422284,106.715334 131.422284,104.69 C131.422284,102.664666 131.184618,100.773666 130.709284,99.017 C130.233951,97.2603336 129.510618,95.7206664 128.539284,94.398 C127.567951,93.0753336 126.369284,92.0316664 124.943284,91.267 C123.517284,90.5023336 121.874284,90.12 120.014284,90.12 C118.154284,90.12 116.511284,90.5023336 115.085284,91.267 C113.659284,92.0316664 112.460618,93.0753336 111.489284,94.398 C110.517951,95.7206664 109.794618,97.2603336 109.319284,99.017 C108.843951,100.773666 108.606284,102.664666 108.606284,104.69 C108.606284,106.715334 108.843951,108.606334 109.319284,110.363 C109.794618,112.119666 110.507618,113.649 111.458284,114.951 C112.408951,116.253 113.597284,117.286334 115.023284,118.051 C116.449284,118.815666 118.112951,119.198 120.014284,119.198 Z" id="Happyness-&amp;-Co-Copy"></path>
                <path d="M147.362063,112.717937 C146.404813,111.760688 144.844079,111.760688 143.88683,112.717937 L143.54,113.064767 L143.19317,112.717937 C142.235921,111.760688 140.675187,111.760688 139.717937,112.717937 C138.760688,113.675187 138.760688,115.235921 139.717937,116.19317 L141.438212,117.913445 L141.438212,117.913445 L143.297219,119.772452 C143.429014,119.904247 143.650985,119.904247 143.789717,119.772452 L145.274148,118.281085 L145.641788,117.913445 L147.362063,116.19317 C148.319312,115.235921 148.319312,113.675187 147.362063,112.717937 Z" id="fe6d6a-copy" fill-rule="nonzero"></path>
            </g>
        </g>
    </g>
</svg>